<svg xmlns="http://www.w3.org/2000/svg" id="a" viewBox="0 0 299.73 199"><defs><style>.b{fill:#fff;}.c{fill:#be1e2d;}.d{font-family:Arial-BoldMT, Arial;font-size:11.17px;}.d,.e,.f{fill:#231f20;}.g{fill:#fbb040;}.e{font-family:LilyScriptOne-Regular, LilyScriptOne Regular;font-size:26.12px;}</style></defs><g><path class="f" d="M14.23,183.1c-4.06,0-7.93-1.74-10.63-4.77-2.7-3.03-3.98-7.08-3.51-11.1C6.82,109.36,11.19,71.3,13.47,50.89c.59-5.32,4.07-9.81,9.08-11.72,3.85-1.46,8.4-2.17,13.93-2.17s10.03,.86,13.89,2.55c4.98-1.69,10.51-2.55,16.45-2.55s11.18,1.21,16.22,3.56c-1.53-6.23-1.17-12.79,1.17-19.09,2.46-6.61,6.65-11.96,12.45-15.89,5.48-3.71,11.38-5.58,17.53-5.58s12.65,1.96,19.06,5.99l.61-.1c.76-.12,1.52-.18,2.27-.18,3.18,0,6.3,1.08,8.8,3.04,4.88,3.84,7.41,7.89,7.71,12.57,.22,0,.45-.01,.67-.01h5.45l.38-3.26c.62-5.28,4.1-9.74,9.07-11.63,3.86-1.47,8.38-2.19,13.83-2.19,15.03,0,22.62,8.21,25.13,17.08h2.99c10.16,0,18.42,8.27,18.42,18.42v6.51c0,4.13-1.39,8.06-3.83,11.23,.65,.56,1.27,1.16,1.87,1.81,.22,.23,.42,.47,.63,.72,1.76-1.76,3.89-3.27,6.38-4.51,4.03-2.01,8.75-3.03,14.02-3.03,5.69,0,10.29,1.08,14.06,3.29,4.91,2.89,7.63,8.41,6.91,14.06-.79,6.27-1.47,11.68-2.05,16.33,.1,0,.21,0,.31,0,3.98,0,7.8,1.68,10.49,4.61,4.4,4.8,6.95,8.61,8.26,12.36,.9,2.58,1.05,5.34,.42,7.99-2.82,11.89-7.62,20.42-14.67,26.06-7,5.6-14.61,8.44-22.6,8.44-6.32,0-11.9-1.37-16.65-4.06-5.23,2.7-11.08,4.06-17.42,4.06-3.08,0-6.03-.28-8.8-.84-7.06,5.33-15.34,8.03-24.66,8.03s-16.35-2.29-21.99-6.81c-3.06,1.75-6.3,3.34-9.66,4.76-8.93,3.76-18.33,5.83-27.94,6.14-.84,.03-1.68,.04-2.51,.04-15.82,0-28.96-5.03-39.04-14.96-1.77-1.76-3.41-3.62-4.92-5.57-6.91,2.96-14.64,4.62-23.08,4.94l-3.39,29.18c-.83,7.17-6.91,12.58-14.13,12.58H14.23Z"></path><path class="c" d="M14.23,178.36c-2.71,0-5.28-1.16-7.08-3.18-1.8-2.02-2.65-4.72-2.34-7.4,6.72-57.85,11.09-95.91,13.38-116.36,.39-3.53,2.73-6.55,6.05-7.81,3.3-1.25,7.3-1.86,12.24-1.86,6.07,0,10.45,1.18,13.62,2.96,4.95-1.97,10.54-2.96,16.72-2.96,8.89,0,17.02,3.3,23.71,9.59,.66-.53,1.33-1.05,2.01-1.55-.38-.5-.74-1.02-1.08-1.55-.14-.21-.27-.43-.39-.66-4.58-7.62-5.44-16.28-2.4-24.45,2.11-5.67,5.69-10.25,10.67-13.61,4.68-3.16,9.68-4.77,14.87-4.77,5.92,0,11.84,2.04,18,6.23l2.42-.39c.5-.08,1.01-.12,1.51-.12,2.11,0,4.18,.71,5.87,2.03,5.79,4.55,7.19,8.79,4.83,15.21,1.93-1.04,4.14-1.64,6.49-1.64h9.67l.88-7.45c.41-3.51,2.74-6.5,6.04-7.76,3.31-1.26,7.28-1.87,12.15-1.87,14.34,0,20.29,8.41,21.24,17.08h6.88c7.54,0,13.68,6.14,13.68,13.68v6.51c0,5.14-2.85,9.63-7.05,11.97,1.95,.69,4.2,1.97,6.36,4.3,1.37,1.48,2.93,3.81,3.67,7.16,.11-.43,.25-.85,.42-1.27,1.51-3.68,4.38-6.6,8.52-8.67,3.37-1.68,7.37-2.53,11.9-2.53,4.82,0,8.64,.86,11.66,2.64,3.27,1.92,5.08,5.61,4.61,9.37-1.26,9.94-2.23,17.7-2.97,23.75,1.04-.84,2.27-1.46,3.62-1.8,.77-.19,1.55-.29,2.32-.29,2.62,0,5.17,1.09,6.99,3.08,3.95,4.3,6.19,7.61,7.28,10.72,.6,1.71,.7,3.56,.28,5.33-2.57,10.83-6.83,18.5-13.02,23.45-6.14,4.91-12.75,7.4-19.64,7.4-6.52,0-12.12-1.68-16.51-4.86-5.08,3.2-11.01,4.86-17.56,4.86-3.59,0-6.92-.42-9.96-1.25-6.58,5.6-14.48,8.43-23.5,8.43s-16.41-2.68-21.39-7.96c-3.74,2.36-7.79,4.46-12.1,6.28-8.39,3.53-17.22,5.48-26.25,5.77-.79,.03-1.58,.04-2.35,.04-14.53,0-26.55-4.57-35.71-13.6-2.52-2.51-4.76-5.24-6.7-8.17-7.94,4.14-17.2,6.23-27.68,6.23-.39,0-.78,0-1.17-.02l-3.88,33.33c-.56,4.78-4.61,8.39-9.42,8.39H14.23Zm126.46-68.37c-1.07,1.35-2.34,2.64-3.82,3.87,4.43-1.45,8.74-3.88,13.03-7.35,.85-.68,1.67-1.38,2.47-2.11,.51-.46,1.06-.88,1.62-1.26l.58-4.96c-3.25,3.31-6.76,5.84-10.5,7.57-1.02,1.47-2.16,2.88-3.38,4.23Zm-88.7-6.39c.26,.04,.58,.07,.99,.07,1.59,0,3.35-.39,5.36-3.2,2.93-4.18,4.45-10.1,4.45-17.5,0-2.87-.59-5.27-1.8-7.33-.29-.49-.36-.61-1.47-.61-1.49,0-2.93,1.54-4.31,4.57-1.68,12.45-2.75,20.45-3.22,24Zm74.26-31.56c-1.19,.04-4.28,.14-8.15,6.3-.06,.09-.11,.18-.16,.27,1.06-.18,2.13-.28,3.2-.33,.56-.11,1.12-.16,1.7-.16,.23,0,.46,0,.7,.03,1.13,.09,2.25,.21,3.37,.37,.75-1.46,1.27-3.02,1.22-4.46-.03-.79-.11-1.34-.18-1.68-.54-.23-1.09-.34-1.7-.34Z"></path><path class="b" d="M14.23,171.25c-.68,0-1.32-.29-1.77-.79-.45-.5-.66-1.18-.58-1.85,6.72-57.86,11.09-95.93,13.38-116.39,.1-.88,.68-1.64,1.51-1.95,2.47-.94,5.65-1.4,9.71-1.4,6.16,0,10.4,1.4,12.66,4.17,4.88-2.77,10.82-4.17,17.68-4.17,8.15,0,15.24,3.36,21.08,9.99,.74,.84,1.43,1.7,2.08,2.59,4.34-4.43,9.15-7.97,14.37-10.58-2.8-1.52-5.12-3.7-6.93-6.49-.06-.09-.11-.18-.15-.27-3.59-5.85-4.26-12.24-1.94-18.49,1.58-4.25,4.27-7.68,7.99-10.2,3.48-2.35,7.14-3.55,10.88-3.55,5.12,0,10.43,2.16,16.22,6.61l5.33-.86c.13-.02,.25-.03,.38-.03,.53,0,1.05,.18,1.47,.51,3.64,2.86,3.93,4.02,2.11,8.27-.29,.68-.89,1.18-1.6,1.36-.71,.18-2.66,.64-2.67,.64,.58,2.06,1.07,5.14,.53,8.82-.51,2.57-1.65,5.03-3.3,7.23-.29,.35-.57,.69-.86,1.02,5.79,.3,10.96,1.44,15.48,3.39-.34-.79-.53-1.66-.53-2.57v-6.51c0-3.62,2.95-6.57,6.57-6.57h16l1.62-13.73c.1-.88,.69-1.62,1.51-1.94,2.49-.95,5.63-1.41,9.61-1.41,12.42,0,14.27,7.86,14.27,12.55,0,.21,0,.46-.5,4.53h14.35c3.62,0,6.57,2.95,6.57,6.57v6.51c0,3.62-2.95,6.57-6.57,6.57h-16.83l-3.64,28.75-1.08,9.21c-.03,.3-.12,.58-.26,.83-1.3,10.84-2.14,18.43-2.49,22.58,0,.08-.02,.16-.03,.24-.09,1.23-.16,2.26-.16,2.85,0,4.68,1.52,4.68,2.17,4.68,.89,0,2.22-.21,3.55-2.07,.49-.68,.89-1.67,1.19-2.93-.13-1-.19-1.94-.19-2.87,0-1.38,.23-3.62,.69-6.86,2.02-16.38,3.59-29.63,4.65-39.32,.1-.91,.71-1.67,1.57-1.98,2.99-1.06,5.81-1.6,8.38-1.6s4.25,.1,5.55,.29c1.69,.26,3.28,1.18,4.71,2.73,1.48,1.6,2.23,3.8,2.23,6.53,0,.1,0,.2-.02,.3l-4.39,33.94c-.17,1.01-.25,1.86-.25,2.62,0,4.55,1.93,5.48,4.82,5.48,3.44,0,6.29-1.61,8.69-4.91,.03-1.02,.12-2.39,.26-4.09l4.4-35.5c.03-.21,.08-.41,.16-.61,.84-2.05,2.56-3.73,5.13-5.01,2.37-1.18,5.3-1.78,8.71-1.78s6.16,.54,8.06,1.66c.82,.48,1.27,1.4,1.15,2.34-4.5,35.51-5.44,44.41-5.44,45.62,0,2.95,.9,2.95,1.49,2.95,1.55,0,3.53-1.35,5.72-3.9,2.45-2.85,4.46-7.3,5.96-13.21,.21-.85,.87-1.5,1.72-1.72,.19-.05,.39-.07,.58-.07,.66,0,1.29,.27,1.75,.77,3.17,3.46,5.08,6.17,5.81,8.27,.15,.43,.17,.89,.07,1.33-2.16,9.09-5.7,15.67-10.54,19.54-4.85,3.88-9.96,5.84-15.19,5.84-7.27,0-12.64-2.43-15.99-7.22-4.78,4.8-10.84,7.22-18.08,7.22-4.59,0-8.56-.8-11.86-2.39-.8,1.02-1.67,1.94-2.6,2.74-5.28,4.54-11.67,6.84-19.01,6.84s-13.08-2.09-16.67-6.22c-1.2-1.38-2.21-2.9-3.01-4.52-4.83,3.79-10.39,7.01-16.58,9.62-7.59,3.19-15.57,4.95-23.73,5.22-.71,.02-1.42,.03-2.12,.03-12.6,0-22.94-3.89-30.72-11.55-3.82-3.8-6.88-8.19-9.14-13.1-8.03,6.05-18.18,9.12-30.23,9.12-2.31,0-4.8-.22-7.43-.66l-4.69,40.26c-.14,1.2-1.15,2.1-2.36,2.1H14.23ZM125.84,64.94c-5.3,.17-9.8,3.32-13.76,9.62-4.1,6.51-6.02,14.31-5.73,23.18,.29,8.71,2.53,15.15,6.67,19.14,3.98,3.84,8.65,5.7,14.28,5.7,.28,0,.56,0,.84-.01,9.15-.3,17.97-3.84,26.23-10.51,.94-.76,1.86-1.54,2.76-2.35,.98-.88,2.18-1.47,3.47-1.71l3.86-33.15c-.02-.25,0-.5,.05-.75,.02-.07,.04-.14,.06-.21l1.41-12.23c0-.08,0-.15,.02-.22l1.01-8.61h-12.98c1.97,1.89,13.79,14.5,.56,34.09-4.5,6.66-9.64,11.07-15.29,13.14-.16,.28-.32,.56-.5,.82,0,0-.14,.22-.14,.22-.99,1.49-2.13,2.94-3.38,4.29-1.31,1.69-3.08,3.29-5.43,4.86-.11,.08-.35,.4-.51,.62-.57,.77-1.43,1.93-3.05,2.29-.27,.06-.54,.09-.8,.09-1.21,0-2.27-.63-2.75-1.65-.06-.13-.11-.26-.15-.39-.27,.07-.56,.11-.87,.11-.35,0-.69-.05-1.02-.15-.96-.29-1.72-.98-2.15-1.92-.3-.67-.41-1.43-.32-2.18-.27,.08-.54,.14-.79,.17-.26,.03-.53,.05-.8,.05-.73,0-1.39-.14-1.98-.43-1.42-.68-2.25-2.13-2.08-3.59,.13-1.09,.79-1.84,1.01-2.08,.17-.19,.36-.38,.55-.56-1.77-.9-2.63-2.93-1.93-4.65,.73-1.76,2.52-2.18,3.38-2.37l.1-.02c-.45-.15-.93-.39-1.35-.8-.23-.22-.92-.9-1.11-1.96-.51-2.97,3.71-4.72,4.51-4.91,1.44-.36,2.87-.53,4.36-.53h0c.24-.09,.49-.14,.75-.14,.05,0,.1,0,.15,0,1.13,.09,2.25,.22,3.37,.39,.02,0,.27,.04,.28,.05,.38,.06,.8,.14,1.21,.22l.47,.09c.64,.14,1.28,.29,1.89,.45,.01-.02,.03-.04,.04-.05,3.43-4.45,5.11-8.68,4.98-12.57-.12-3.61-1.06-6-2.79-7.09-1.94-1.22-3.97-1.81-6.2-1.81h-.41Zm-77.55,12.75c-2.05,15.16-3.23,23.97-3.54,26.44-.09,2.86,1.11,4.13,2.03,4.81,1.67,1.25,3.7,1.86,6.2,1.86,4.52,0,8.17-2.02,11.15-6.17,3.83-5.46,5.78-12.75,5.78-21.65,0-4.11-.94-7.79-2.78-10.93-1.66-2.81-4.07-4.12-7.6-4.12-4.83,0-8.5,3.19-11.23,9.76Zm54.13-43.97c.5,5.49,3.12,9.03,8.14,11.03,1.68,.67,3.33,1.01,4.9,1.01,3.02,0,5.83-1.25,8.34-3.72,3.62-3.55,4.73-7.59,3.36-12.31l-24.74,3.99Z"></path><path class="g" d="M266.91,100.37c-1.6,6.3-3.75,11.03-6.46,14.18-2.71,3.15-5.21,4.73-7.52,4.73-2.57,0-3.86-1.77-3.86-5.32,0-1.86,1.82-17.17,5.46-45.92-1.51-.89-3.79-1.33-6.85-1.33s-5.61,.51-7.65,1.53c-2.04,1.02-3.37,2.29-3.99,3.79l-4.39,35.4c-.18,2.13-.27,3.68-.27,4.66-2.93,4.35-6.61,6.52-11.05,6.52-4.79,0-7.19-2.62-7.19-7.85,0-.89,.09-1.86,.27-2.93l4.39-33.94c0-2.13-.53-3.77-1.6-4.92-1.06-1.15-2.17-1.82-3.33-2-1.15-.18-2.88-.27-5.19-.27s-4.84,.49-7.59,1.46c-1.07,9.76-2.62,22.89-4.66,39.4-.45,3.11-.67,5.28-.67,6.52,0,1.03,.09,2.02,.23,2.97-.36,1.71-.9,3.15-1.67,4.21-1.46,2.04-3.29,3.05-5.48,3.05-3.03,0-4.54-2.35-4.54-7.05,0-.63,.07-1.73,.2-3.28h0c.37-4.33,1.24-12.21,2.62-23.66,.05,.05,.09,.11,.14,.16l1.08-9.23,3.52-27.78c.13-1.05,.26-2.06,.39-3.04h18.92c2.32,0,4.2-1.88,4.2-4.2v-6.51c0-2.32-1.88-4.2-4.2-4.2h-17.03c.54-4.32,.81-6.63,.81-6.9,0-6.78-3.97-10.18-11.9-10.18-3.66,0-6.58,.42-8.77,1.25l-1.86,15.83h-18.11c-2.32,0-4.2,1.88-4.2,4.2v6.51c0,2.32,1.88,4.2,4.2,4.2h16.35l-1.32,11.26h.01l-1.49,12.92h-.11l.1,.05-.76,6.54-3.39,29.09c-1.36-.22-2.83,.11-4,1.16-.93,.84-1.88,1.65-2.85,2.43-8.71,7.03-17.93,10.71-27.65,11.03-6.61,.22-12.22-1.9-16.84-6.35-4.62-4.45-7.09-11.37-7.4-20.76-.31-9.39,1.72-17.56,6.09-24.52,4.37-6.95,9.6-10.53,15.69-10.73,2.85-.09,5.5,.63,7.95,2.17,2.45,1.54,3.75,4.54,3.9,9.01,.15,4.47-1.67,9.17-5.47,14.09-.27,.35-.55,.67-.83,.98-.06,.12-.13,.24-.2,.36-1.14-.37-2.27-.65-3.23-.85-.55-.11-1.09-.22-1.64-.31-.08-.01-.16-.03-.23-.04-1.07-.16-2.13-.28-3.2-.37l.06,.16c-1.36-.06-2.88,.02-4.58,.44-.79,.2-2.88,1.42-2.74,2.21,.04,.26,.23,.48,.42,.66,.82,.79,2.87-.09,3.82,.56,.36,.25,.72,.55,.86,.95,.34,.96-.65,1.83-1.57,2.28-.95,.46-1.95,.82-2.98,1.05-.67,.15-1.46,.34-1.72,.96-.26,.64,.26,1.4,.92,1.69,.66,.29,1.41,.23,2.13,.2,.72-.03,3.74-1.32,4.34-.94,.2,.13,.38,.3,.45,.52,.12,.38-.14,.79-.48,1-.35,.21-3.01,1.57-3.41,1.67-1.15,.27-2.22,.87-2.99,1.74-.2,.23-.39,.49-.43,.79-.06,.48,.3,.95,.75,1.16,.45,.22,.97,.22,1.46,.16,1.29-.16,4.06-2.08,5.18-2.72,.36-.21,.81-.42,1.18-.23,.48,.24,.45,.93,.22,1.39-.37,.75-2.63,2.66-2.98,3.42-.35,.76-.18,1.89,.65,2.15,.71,.22,1.39-.34,1.9-.85,.94-.94,1.92-2.56,2.83-2.82,.91-.26-.82,3.19-1.23,4.79-.05,.19-.09,.39,0,.56,.14,.3,.57,.34,.9,.27,1.28-.28,1.68-1.85,2.75-2.56,2.34-1.57,3.89-3.03,4.94-4.43,1.17-1.26,2.26-2.62,3.22-4.08,.04-.07,.08-.13,.13-.2,.31-.47,.58-.97,.83-1.47,4.58-1.45,9.87-4.95,14.98-12.52,12.33-18.25,1.47-29.48-.33-31.14-.44-.33-.87-.66-1.34-.97-6.36-4.13-14.53-6.04-24.51-5.71-.29,0-.57,.05-.86,.07,.51-.35,1.02-.69,1.52-1.1l.04-.03c1.27-1.05,2.49-2.3,3.63-3.71,1.77-2.35,2.53-4.55,2.85-6.16,.89-6.02-1.33-10.16-1.33-10.16,1.38-.35,3.84-.91,5.25-1.26q1.4-3.27-1.39-5.47c-2.06,.33-4.3,.69-6.36,1.03-9.55-7.63-17.57-8.72-25.13-3.6-3.35,2.26-5.7,5.31-7.09,9.06-2.19,5.9-1.32,11.56,1.87,16.63h0c1.38,2.13,3.46,4.4,6.54,5.95,.22,.11,.45,.22,.67,.32,.09,.04,.18,.08,.27,.12,1.29,.57,2.57,.95,3.85,1.25-7.39,2.64-14.02,7.02-19.86,13.22-.42,.45-.78,.91-1.18,1.36-1.02-1.69-2.21-3.31-3.58-4.87-5.4-6.12-11.83-9.18-19.3-9.18s-13.64,1.71-18.52,5.13c-1.14-3.42-5.08-5.13-11.83-5.13-3.73,0-6.69,.42-8.87,1.24-2.28,20.44-6.74,59.24-13.38,116.4h20.39l4.98-42.79c3.42,.72,6.59,1.09,9.49,1.09,12.82,0,23.21-3.53,31.19-10.59,2.2,5.78,5.45,10.88,9.84,15.25,7.77,7.65,18.14,11.27,31.09,10.84,7.9-.26,15.53-1.94,22.88-5.04,7.15-3.01,13.3-6.8,18.5-11.33,.77,2.53,2.02,4.83,3.8,6.87,3.13,3.6,8.09,5.4,14.88,5.4s12.61-2.09,17.46-6.26c1.33-1.14,2.46-2.51,3.43-4.05,3.25,2.07,7.43,3.13,12.58,3.13,7.72,0,13.89-2.97,18.5-8.92,2.66,5.95,7.85,8.92,15.57,8.92,4.7,0,9.27-1.77,13.71-5.32,4.44-3.55,7.67-9.63,9.72-18.23-.62-1.77-2.4-4.26-5.32-7.45ZM109.67,46.94c-6.6-2.64-9.71-7.65-9.72-15.24,9.73-1.57,19.2-3.1,28.78-4.64,2.61,6.45,1.4,12.08-3.28,16.67-4.42,4.33-9.86,5.58-15.79,3.21Zm-43.62,59.07c-3.42,4.77-7.78,7.16-13.07,7.16-3.01,0-5.55-.78-7.63-2.33-2.08-1.56-3.06-3.89-2.96-7,.31-2.49,1.5-11.41,3.58-26.77,3.11-7.68,7.63-11.52,13.54-11.52,4.36,0,7.57,1.77,9.65,5.29,2.07,3.53,3.11,7.57,3.11,12.14,0,9.44-2.08,17.12-6.22,23.03Z"></path></g><path class="b" d="M109.64,47.14c6.04,2.38,11.57,1.09,16.05-3.34,4.75-4.69,5.95-10.42,3.27-16.97l-29.27,4.85c.04,7.72,3.23,12.81,9.96,15.46Zm-1.28-5.93c.13-.41,.36-.79,.71-1.51,5.09,2.82,9.56,1.97,13.31-2.06,.75,.49,1.23,.8,2.28,1.47-1.44,1.31-2.53,2.68-3.93,3.51-4.17,2.47-8.35,2.3-12.35-.29-.02-.55-.11-.86-.03-1.13Z"></path><path class="c" d="M135.57,21.08l-8.26,1.55c-1.04-1.33-2.71-2.81-5.56-4.18-5.8-2.8-10.37-2.51-15.58,.51-2.81,1.63-4.51,4.5-5.61,7.67-.5,1.43-.77,2.84-.89,4.24,0,0,19.23-3.43,26.52-4.74l9.67-1.68,.77-.49c1.38-1.64-1.07-2.88-1.07-2.88Z"></path><text class="e" transform="translate(70.94 192.58) rotate(-10.8)"><tspan x="0" y="0">A</tspan></text><text class="e" transform="translate(86.47 189.67) rotate(-9.64)"><tspan x="0" y="0"> </tspan></text><text class="e" transform="translate(91.79 188.76) rotate(-8.99)"><tspan x="0" y="0">f</tspan></text><text class="e" transform="translate(98.83 187.61) rotate(-8.01)"><tspan x="0" y="0">o</tspan></text><text class="e" transform="translate(112.82 185.64) rotate(-6.81)"><tspan x="0" y="0">o</tspan></text><text class="e" transform="translate(126.86 183.97) rotate(-5.69)"><tspan x="0" y="0">d</tspan></text><text class="e" transform="translate(141.39 182.55) rotate(-4.94)"><tspan x="0" y="0">i</tspan></text><text class="e" transform="translate(147.37 182.01) rotate(-4.27)"><tspan x="0" y="0">e</tspan></text><text class="e" transform="translate(160.29 181.06) rotate(-3.66)"><tspan x="0" y="0"> </tspan></text><text class="e" transform="translate(165.75 180.71) rotate(-3.28)"><tspan x="0" y="0">I</tspan></text><text class="e" transform="translate(172.13 180.33) rotate(-2.61)"><tspan x="0" y="0">n</tspan></text><text class="e" transform="translate(186.45 179.67) rotate(-1.73)"><tspan x="0" y="0">d</tspan></text><text class="e" transform="translate(201.07 179.25) rotate(-1.13)"><tspan x="0" y="0">i</tspan></text><text class="e" transform="translate(207.09 179.12) rotate(-.6)"><tspan x="0" y="0">a</tspan></text><text class="e" transform="translate(219.53 178.98) rotate(.14)"><tspan x="0" y="0">n</tspan></text><text class="d" transform="translate(282.19 138.46)"><tspan x="0" y="0">TM</tspan></text></svg>